<?xml version="1.0"?><svg width="816" height="1056" xmlns="http://www.w3.org/2000/svg">
 <title>Flower pink</title>
 <defs>
  <pattern height="100" width="100" y="0" x="0" patternUnits="userSpaceOnUse" id="gridpattern">
   <image height="100" width="100" y="0" x="0"/>
  </pattern>
 </defs>
 <metadata id="metadata3234">image/svg+xml</metadata>
 <g>
  <title>Layer 1</title>
  <g id="layer1">
   <path fill="#ffaad4" stroke="#000000" stroke-width="4.137208" stroke-miterlimit="4" d="m356.617126,420.655334c-4.691315,58.56958 -39.870361,115.490479 -90.03772,144.132935c-47.063477,26.121582 -113.768387,7.08728 -135.514267,-42.906433c-16.83725,-44.854187 -1.027603,-97.176819 29.709106,-131.862457c23.628021,-27.324829 58.596725,-38.242767 90.700272,-53.198792c-49.813248,6.537903 -102.653702,-3.72171 -141.620483,-35.364227c-23.840446,-17.936981 -47.382919,-44.845795 -46.389961,-76.801575c2.390923,-47.177902 50.552681,-85.698883 97.324654,-78.251938c57.989105,8.653564 102.575623,51.653198 138.951813,95.24733c-12.996338,-12.075165 -25.081604,-31.250153 -30.494171,-48.083267c-16.343201,-70.055725 22.093262,-148.493256 87.783813,-177.442436c13.818848,-6.858566 30.744995,-3.939796 42.765656,6.137531c31.653931,24.487278 52.996368,63.896633 51.104401,104.320393c-4.895538,44.053558 -26.960327,82.164352 -50.476349,119.019501c19.829224,-36.442566 46.203522,-67.591476 86.859802,-84.739548c51.871704,-22.090622 120.774902,-21.706116 160.947021,23.242493c25.645264,25.597733 20.349548,71.365097 -4.681458,95.464554c-28.134949,26.620422 -66.690063,36.308289 -102.440857,46.297821c-30.743347,10.088959 -68.625183,0.600464 -99.69101,0.238922c28.523865,1.436768 65.037079,1.834595 86.566132,17.09137c33.256104,23.781219 66.867798,57.618042 61.47168,102.276581c-6.596497,49.799957 -48.845093,104.549164 -103.529297,95.592194c-56.987915,-9.863464 -103.656952,-70.216492 -129.308777,-120.41095z" id="path3806"/>
   <path fill="#f9f98b" stroke="#000000" stroke-width="3.898249" stroke-miterlimit="4" id="path3800" d="m384.453827,244.41272c51.885071,26.065155 61.685974,107.861908 18.666168,147.137695c-38.362793,39.370636 -110.920044,30.729767 -137.011841,-19.112518c-27.021393,-42.816895 -9.993896,-107.395142 35.638428,-128.771942c25.143921,-13.576111 56.718048,-12.815033 82.707245,0.746765z"/>
   <path fill="#64c601" stroke="#000000" stroke-width="5.352934" stroke-miterlimit="4" id="path38" d="m563.493042,609.20813c44.284485,193.53595 -110.657013,248.391785 -225.162567,308.108704c28.216095,-120.135803 7.23999,-268.860901 225.162567,-308.108704z"/>
   <path fill="#60c100" stroke="#000000" stroke-width="5.337831" stroke-miterlimit="4" id="path3789" d="m38.950768,632.33429c-3.793327,195.306824 179.178596,225.017273 293.361122,284.565552c-30.379028,-122.113892 -105.206787,-282.502563 -293.361122,-284.565552z"/>
   <path fill="#67ce00" stroke="#000000" stroke-width="2.851429" stroke-miterlimit="4" d="m335.71936,920.020264c-46.148987,-289.808838 40.216949,-293.515808 20.275635,-501.496796c45.805481,139.621185 -33.459412,184.467255 -20.275635,501.496796z" id="path32"/>
  </g>
 </g>
</svg>